<svg xmlns="http://www.w3.org/2000/svg" version="1.1" viewBox="1.5886363983154297 2.481161594390869 562.9236450195312 485.6888122558594" width="696.00" height="657.00">
<g stroke-width="2.00" fill="none" stroke-linecap="butt">
<path stroke="#f3ab09" d="&#10;  M 234.77 28.90&#10;  Q 224.53 28.73 214.38 29.73&#10;  C 204.60 30.70 192.40 33.03 185.20 39.94&#10;  Q 183.23 41.84 181.22 45.69"/>
<path stroke="#f4ba02" d="&#10;  M 181.22 45.69&#10;  Q 162.52 53.30 144.42 62.29&#10;  Q 143.96 62.52 143.99 63.04&#10;  L 144.06 64.25"/>
<path stroke="#fc7e0b" d="&#10;  M 70.27 123.42&#10;  L 61.99 136.61&#10;  Q 61.72 137.03 61.68 137.52&#10;  L 60.95 145.77"/>
<path stroke="#fc8902" d="&#10;  M 60.95 145.77&#10;  L 25.94 111.56&#10;  Q 25.53 111.16 25.03 111.23&#10;  L 22.03 111.69&#10;  A 0.29 0.29 0.0 0 1 21.69 111.40&#10;  L 21.69 111.01&#10;  A 0.76 0.76 0.0 0 1 22.33 110.26&#10;  L 27.55 109.46"/>
<path stroke="#fc9602" d="&#10;  M 27.55 109.46&#10;  Q 33.66 108.34 39.63 109.73&#10;  C 41.69 110.21 43.64 111.48 45.76 112.13&#10;  Q 46.23 112.27 46.60 111.95&#10;  Q 60.36 100.00 62.51 97.86&#10;  Q 81.31 79.21 90.82 71.86&#10;  Q 114.38 53.62 137.59 34.95&#10;  Q 147.11 27.28 166.03 16.26"/>
<path stroke="#edbf08" d="&#10;  M 239.81 68.55&#10;  Q 232.69 61.68 224.80 56.09&#10;  Q 211.45 46.64 195.11 45.73&#10;  Q 188.15 45.34 181.22 45.69"/>
<path stroke="#fd4728" d="&#10;  M 121.74 160.69&#10;  Q 104.17 173.13 92.27 190.79"/>
<path stroke="#fd610b" d="&#10;  M 60.95 145.77&#10;  Q 57.56 155.60 50.28 163.15"/>
<path stroke="#fe7902" d="&#10;  M 27.55 109.46&#10;  Q 37.58 83.52 53.19 61.81"/>
<path stroke="#dd7951" d="&#10;  M 336.53 25.28&#10;  Q 337.34 45.39 335.73 65.50"/>
<path stroke="#e79e22" d="&#10;  M 284.97 64.79&#10;  L 282.23 24.57"/>
<path stroke="#fc2b53" d="&#10;  M 165.61 186.91&#10;  Q 152.26 202.72 142.25 220.69"/>
<path stroke="#ba5594" d="&#10;  M 455.11 54.81&#10;  Q 439.30 68.91 426.66 84.72"/>
<path stroke="#fc0f87" d="&#10;  M 208.03 210.78&#10;  Q 202.76 231.58 191.16 249.72"/>
<path stroke="#7a3ad1" d="&#10;  M 513.09 62.89&#10;  Q 505.29 73.02 495.70 81.58"/>
<path stroke="#7a3ad1" d="&#10;  M 447.01 161.92&#10;  Q 444.67 166.30 443.12 170.84&#10;  Q 442.39 172.98 438.47 177.70&#10;  Q 438.17 178.06 437.71 177.99&#10;  Q 433.33 177.39 430.50 176.00&#10;  Q 430.01 175.76 429.58 176.11&#10;  L 427.53 177.73&#10;  Q 426.83 178.29 427.39 178.98&#10;  L 432.17 185.00&#10;  Q 433.53 186.71 431.94 185.21&#10;  Q 427.98 181.47 424.35 176.71&#10;  Q 422.42 174.18 417.87 173.49"/>
<path stroke="#da00bc" d="&#10;  M 274.31 266.24&#10;  Q 259.48 282.88 242.08 297.29"/>
<path stroke="#3733ee" d="&#10;  M 544.72 84.71&#10;  Q 544.76 88.58 545.06 92.47&#10;  Q 545.23 94.67 544.14 95.69&#10;  Q 541.59 98.08 539.49 100.99&#10;  Q 539.06 101.58 534.97 103.57&#10;  C 531.24 105.38 530.43 110.16 531.25 114.20&#10;  Q 533.73 126.58 530.51 138.61&#10;  Q 528.36 146.62 522.02 151.57"/>
<path stroke="#9b02de" d="&#10;  M 325.21 301.92&#10;  C 315.60 318.35 305.16 332.29 293.18 347.74"/>
<path stroke="#3733ee" d="&#10;  M 460.01 210.78&#10;  Q 462.56 203.12 467.34 197.07&#10;  C 470.53 193.04 475.66 189.13 479.90 185.42&#10;  Q 484.38 181.50 484.24 175.43"/>
<path stroke="#691ae7" d="&#10;  M 304.03 405.70&#10;  Q 287.05 392.69 265.82 383.32"/>
<path stroke="#3a54e3" d="&#10;  M 240.54 448.54&#10;  Q 234.36 439.06 228.20 429.70&#10;  Q 223.41 422.42 220.39 412.39"/>
<path stroke="#1390dd" d="&#10;  M 215.78 485.51&#10;  Q 215.99 483.79 215.72 482.90&#10;  Q 215.58 482.41 215.10 482.56&#10;  Q 205.57 485.37 197.76 481.19&#10;  Q 191.44 477.80 188.12 474.18&#10;  Q 186.03 471.89 181.36 465.26&#10;  Q 180.99 464.73 180.35 464.85&#10;  L 178.66 465.15"/>
<path stroke="#1390dd" d="&#10;  M 143.30 426.83&#10;  Q 142.50 428.02 141.51 427.90&#10;  Q 141.38 427.88 141.25 427.87&#10;  Q 141.26 427.87 141.28 427.88&#10;  Q 141.32 427.90 141.34 427.90&#10;  Q 144.87 427.95 145.83 427.66&#10;  Q 150.73 426.20 155.71 425.09&#10;  Q 156.20 424.98 156.38 425.45&#10;  L 170.48 462.40"/>
<path stroke="#03ceda" d="&#10;  M 117.04 411.55&#10;  Q 116.15 435.95 128.89 457.58&#10;  Q 136.44 470.39 145.33 488.12"/>
<path stroke="#1c58eb" d="&#10;  M 562.97 375.34&#10;  C 554.64 358.99 545.81 342.88 534.87 328.16&#10;  C 520.24 308.49 500.06 293.85 476.00 288.07&#10;  Q 469.08 286.41 462.00 285.01"/>
<path stroke="#1390dd" d="&#10;  M 551.28 403.21&#10;  Q 543.69 381.97 534.99 361.40&#10;  C 528.16 345.24 519.68 330.70 506.12 319.21&#10;  Q 492.18 307.40 473.28 301.01&#10;  Q 455.91 295.13 441.20 295.36"/>
<path stroke="#21b0ce" d="&#10;  M 525.24 427.37&#10;  Q 531.50 407.91 525.28 388.39"/>
<path stroke="#21b0ce" d="&#10;  M 440.42 344.00&#10;  Q 434.43 339.26 426.99 337.59&#10;  Q 423.42 336.79 412.63 333.88"/>
</g>
<path fill="#faa602" d="&#10;  M 234.77 28.90&#10;  Q 224.53 28.73 214.38 29.73&#10;  C 204.60 30.70 192.40 33.03 185.20 39.94&#10;  Q 183.23 41.84 181.22 45.69&#10;  Q 162.52 53.30 144.42 62.29&#10;  Q 143.96 62.52 143.99 63.04&#10;  L 144.06 64.25&#10;  Q 139.56 71.06 133.09 76.08&#10;  Q 121.99 84.70 109.30 90.26&#10;  Q 87.19 99.95 63.33 103.56&#10;  C 61.27 103.87 59.23 105.40 59.11 107.80&#10;  Q 58.90 111.84 61.97 115.02&#10;  Q 67.97 121.24 70.27 123.42&#10;  L 61.99 136.61&#10;  Q 61.72 137.03 61.68 137.52&#10;  L 60.95 145.77&#10;  L 25.94 111.56&#10;  Q 25.53 111.16 25.03 111.23&#10;  L 22.03 111.69&#10;  A 0.29 0.29 0.0 0 1 21.69 111.40&#10;  L 21.69 111.01&#10;  A 0.76 0.76 0.0 0 1 22.33 110.26&#10;  L 27.55 109.46&#10;  Q 33.66 108.34 39.63 109.73&#10;  C 41.69 110.21 43.64 111.48 45.76 112.13&#10;  Q 46.23 112.27 46.60 111.95&#10;  Q 60.36 100.00 62.51 97.86&#10;  Q 81.31 79.21 90.82 71.86&#10;  Q 114.38 53.62 137.59 34.95&#10;  Q 147.11 27.28 166.03 16.26&#10;  Q 169.64 22.60 171.03 29.90&#10;  Q 171.28 31.24 172.62 31.45&#10;  Q 174.84 31.81 177.55 31.62&#10;  A 1.01 1.00 1.4 0 0 178.48 30.74&#10;  C 179.86 20.32 186.08 8.19 196.65 4.65&#10;  C 200.75 3.28 206.06 2.00 210.56 2.66&#10;  Q 224.90 4.80 231.24 18.49&#10;  Q 233.46 23.27 234.77 28.90&#10;  Z"/>
<path fill="#fe8601" d="&#10;  M 166.03 16.26&#10;  Q 147.11 27.28 137.59 34.95&#10;  Q 114.38 53.62 90.82 71.86&#10;  Q 81.31 79.21 62.51 97.86&#10;  Q 60.36 100.00 46.60 111.95&#10;  Q 46.23 112.27 45.76 112.13&#10;  C 43.64 111.48 41.69 110.21 39.63 109.73&#10;  Q 33.66 108.34 27.55 109.46&#10;  Q 37.58 83.52 53.19 61.81&#10;  Q 59.97 61.17 66.62 59.38&#10;  Q 68.28 58.93 79.58 55.24&#10;  Q 87.64 52.61 94.63 49.11&#10;  Q 105.13 43.87 115.12 39.39&#10;  Q 115.95 39.02 115.69 38.14&#10;  Q 114.02 32.55 114.72 26.75&#10;  Q 115.35 21.54 118.63 16.32&#10;  Q 125.75 4.97 139.99 3.05&#10;  Q 144.22 2.47 147.86 3.31&#10;  Q 150.19 3.85 153.50 4.72&#10;  C 158.75 6.10 163.44 11.68 166.03 16.26&#10;  Z"/>
<path fill="#e38c35" d="&#10;  M 336.53 25.28&#10;  Q 337.34 45.39 335.73 65.50&#10;  Q 327.03 64.81 324.50 64.69&#10;  Q 309.68 64.02 284.97 64.79&#10;  L 282.23 24.57&#10;  Q 292.49 24.28 302.75 24.16&#10;  Q 319.70 23.97 336.53 25.28&#10;  Z"/>
<path fill="#ebb00f" d="&#10;  M 282.23 24.57&#10;  L 284.97 64.79&#10;  L 239.81 68.55&#10;  Q 232.69 61.68 224.80 56.09&#10;  Q 211.45 46.64 195.11 45.73&#10;  Q 188.15 45.34 181.22 45.69&#10;  Q 183.23 41.84 185.20 39.94&#10;  C 192.40 33.03 204.60 30.70 214.38 29.73&#10;  Q 224.53 28.73 234.77 28.90&#10;  Q 237.67 28.91 244.50 27.79&#10;  Q 252.24 26.51 282.23 24.57&#10;  Z"/>
<path fill="#d6656c" d="&#10;  M 455.11 54.81&#10;  Q 439.30 68.91 426.66 84.72&#10;  Q 415.39 81.05 405.27 77.44&#10;  Q 395.84 74.08 375.71 70.68&#10;  Q 355.87 67.33 335.73 65.50&#10;  Q 337.34 45.39 336.53 25.28&#10;  C 345.44 25.98 354.43 26.40 363.11 27.85&#10;  Q 371.25 29.22 379.40 30.52&#10;  Q 393.30 32.73 414.88 38.39&#10;  Q 434.40 43.51 455.11 54.81&#10;  Z"/>
<path fill="#eecd01" d="&#10;  M 239.81 68.55&#10;  Q 232.08 69.03 224.51 67.93&#10;  Q 218.33 67.03 214.94 65.23&#10;  Q 210.82 63.05 206.48 59.23&#10;  A 1.22 1.22 0.0 0 0 204.77 59.32&#10;  C 201.85 62.51 199.39 65.56 196.38 67.57&#10;  Q 192.04 70.46 186.92 72.44&#10;  Q 170.15 78.94 154.46 70.48&#10;  Q 152.55 69.45 150.01 67.41&#10;  Q 147.88 65.71 145.78 63.97&#10;  Q 144.74 63.11 144.06 64.25&#10;  L 143.99 63.04&#10;  Q 143.96 62.52 144.42 62.29&#10;  Q 162.52 53.30 181.22 45.69&#10;  Q 188.15 45.34 195.11 45.73&#10;  Q 211.45 46.64 224.80 56.09&#10;  Q 232.69 61.68 239.81 68.55&#10;  Z"/>
<path fill="#9e45bc" d="&#10;  M 513.09 62.89&#10;  Q 505.29 73.02 495.70 81.58&#10;  Q 485.15 78.22 474.48 79.97&#10;  Q 453.07 83.48 440.64 101.40&#10;  Q 434.80 109.82 433.41 119.97&#10;  Q 430.04 144.56 447.01 161.92&#10;  Q 444.67 166.30 443.12 170.84&#10;  Q 442.39 172.98 438.47 177.70&#10;  Q 438.17 178.06 437.71 177.99&#10;  Q 433.33 177.39 430.50 176.00&#10;  Q 430.01 175.76 429.58 176.11&#10;  L 427.53 177.73&#10;  Q 426.83 178.29 427.39 178.98&#10;  L 432.17 185.00&#10;  Q 433.53 186.71 431.94 185.21&#10;  Q 427.98 181.47 424.35 176.71&#10;  Q 422.42 174.18 417.87 173.49&#10;  Q 412.70 163.41 410.68 153.05&#10;  Q 407.60 137.26 410.34 121.35&#10;  Q 411.62 113.95 415.27 105.92&#10;  Q 420.19 95.10 426.66 84.72&#10;  Q 439.30 68.91 455.11 54.81&#10;  Q 458.88 56.64 462.92 58.86&#10;  C 464.29 59.62 465.81 59.77 467.47 59.44&#10;  Q 490.83 54.75 513.09 62.89&#10;  Z"/>
<path fill="#fd6c02" d="&#10;  M 53.19 61.81&#10;  Q 37.58 83.52 27.55 109.46&#10;  L 22.33 110.26&#10;  A 0.76 0.76 0.0 0 0 21.69 111.01&#10;  L 21.69 111.40&#10;  A 0.29 0.29 0.0 0 0 22.03 111.69&#10;  L 25.03 111.23&#10;  Q 25.53 111.16 25.94 111.56&#10;  L 60.95 145.77&#10;  Q 57.56 155.60 50.28 163.15&#10;  Q 37.62 172.50 23.02 168.49&#10;  Q 15.49 166.42 9.85 159.81&#10;  Q -5.22 142.18 7.20 122.12&#10;  Q 11.71 114.85 20.16 111.91&#10;  Q 22.07 111.25 20.36 110.18&#10;  Q 6.25 101.37 7.43 84.55&#10;  Q 8.50 69.45 20.05 61.62&#10;  Q 25.13 58.17 31.46 57.47&#10;  Q 38.23 56.73 43.91 58.06&#10;  Q 48.11 59.04 53.19 61.81&#10;  Z"/>
<path fill="#552fe6" d="&#10;  M 544.72 84.71&#10;  Q 544.76 88.58 545.06 92.47&#10;  Q 545.23 94.67 544.14 95.69&#10;  Q 541.59 98.08 539.49 100.99&#10;  Q 539.06 101.58 534.97 103.57&#10;  C 531.24 105.38 530.43 110.16 531.25 114.20&#10;  Q 533.73 126.58 530.51 138.61&#10;  Q 528.36 146.62 522.02 151.57&#10;  Q 536.30 126.59 521.21 101.52&#10;  C 515.44 91.93 506.19 85.44 495.70 81.58&#10;  Q 505.29 73.02 513.09 62.89&#10;  Q 531.47 70.11 544.72 84.71&#10;  Z"/>
<path fill="#1837f6" d="&#10;  M 544.72 84.71&#10;  Q 559.09 100.53 562.91 121.81&#10;  Q 567.54 147.70 557.21 170.73&#10;  Q 552.92 180.28 546.78 187.73&#10;  Q 537.47 199.03 524.29 206.04&#10;  C 509.34 213.98 490.77 217.87 474.24 214.55&#10;  Q 468.61 213.42 460.01 210.78&#10;  Q 462.56 203.12 467.34 197.07&#10;  C 470.53 193.04 475.66 189.13 479.90 185.42&#10;  Q 484.38 181.50 484.24 175.43&#10;  Q 508.76 173.28 522.02 151.57&#10;  Q 528.36 146.62 530.51 138.61&#10;  Q 533.73 126.58 531.25 114.20&#10;  C 530.43 110.16 531.24 105.38 534.97 103.57&#10;  Q 539.06 101.58 539.49 100.99&#10;  Q 541.59 98.08 544.14 95.69&#10;  Q 545.23 94.67 545.06 92.47&#10;  Q 544.76 88.58 544.72 84.71&#10;  Z"/>
<path fill="#fd5513" d="&#10;  M 121.74 160.69&#10;  Q 104.17 173.13 92.27 190.79&#10;  Q 90.49 189.72 88.80 188.68&#10;  Q 73.26 179.07 58.07 168.93&#10;  Q 54.02 166.23 50.28 163.15&#10;  Q 57.56 155.60 60.95 145.77&#10;  L 61.68 137.52&#10;  Q 61.72 137.03 61.99 136.61&#10;  L 70.27 123.42&#10;  Q 83.25 135.83 98.28 145.72&#10;  Q 109.73 153.26 121.74 160.69&#10;  Z"/>
<path fill="#fc393c" d="&#10;  M 121.74 160.69&#10;  L 165.61 186.91&#10;  Q 152.26 202.72 142.25 220.69&#10;  L 92.27 190.79&#10;  Q 104.17 173.13 121.74 160.69&#10;  Z"/>
<path fill="#552fe6" d="&#10;  M 484.24 175.43&#10;  Q 484.38 181.50 479.90 185.42&#10;  C 475.66 189.13 470.53 193.04 467.34 197.07&#10;  Q 462.56 203.12 460.01 210.78&#10;  Q 431.88 200.12 417.87 173.49&#10;  Q 422.42 174.18 424.35 176.71&#10;  Q 427.98 181.47 431.94 185.21&#10;  Q 433.53 186.71 432.17 185.00&#10;  L 427.39 178.98&#10;  Q 426.83 178.29 427.53 177.73&#10;  L 429.58 176.11&#10;  Q 430.01 175.76 430.50 176.00&#10;  Q 433.33 177.39 437.71 177.99&#10;  Q 438.17 178.06 438.47 177.70&#10;  Q 442.39 172.98 443.12 170.84&#10;  Q 444.67 166.30 447.01 161.92&#10;  Q 462.20 176.83 484.24 175.43&#10;  Z"/>
<path fill="#fc1d6a" d="&#10;  M 165.61 186.91&#10;  L 208.03 210.78&#10;  Q 202.76 231.58 191.16 249.72&#10;  L 142.25 220.69&#10;  Q 152.26 202.72 165.61 186.91&#10;  Z"/>
<path fill="#fb00a4" d="&#10;  M 274.31 266.24&#10;  Q 259.48 282.88 242.08 297.29&#10;  Q 238.99 293.68 237.44 291.05&#10;  Q 233.40 284.22 233.05 283.63&#10;  Q 232.79 283.21 232.34 283.03&#10;  C 228.65 281.51 224.51 279.93 221.43 277.32&#10;  Q 213.28 270.40 208.90 260.62&#10;  C 208.23 259.11 206.67 258.02 205.01 257.25&#10;  Q 197.99 253.97 191.16 249.72&#10;  Q 202.76 231.58 208.03 210.78&#10;  Q 217.64 215.86 227.01 221.26&#10;  C 229.18 222.51 231.09 223.16 233.81 222.92&#10;  Q 240.95 222.29 246.52 223.20&#10;  C 256.99 224.93 266.77 233.09 269.96 243.52&#10;  Q 272.02 250.24 271.79 253.74&#10;  Q 271.56 257.19 271.36 260.63&#10;  C 271.22 263.07 272.68 264.65 274.31 266.24&#10;  Z"/>
<path fill="#b800d4" d="&#10;  M 325.21 301.92&#10;  C 315.60 318.35 305.16 332.29 293.18 347.74&#10;  L 286.14 343.08&#10;  Q 285.74 342.82 285.55 342.37&#10;  Q 280.81 331.19 271.02 323.98&#10;  Q 255.16 312.29 242.08 297.29&#10;  Q 259.48 282.88 274.31 266.24&#10;  Q 287.42 279.71 299.95 293.82&#10;  C 301.82 295.92 305.69 295.44 307.95 295.69&#10;  Q 317.37 296.72 325.21 301.92&#10;  Z"/>
<path fill="#1837f6" d="&#10;  M 562.97 375.34&#10;  C 554.64 358.99 545.81 342.88 534.87 328.16&#10;  C 520.24 308.49 500.06 293.85 476.00 288.07&#10;  Q 469.08 286.41 462.00 285.01&#10;  Q 471.68 281.87 479.28 281.30&#10;  Q 493.26 280.23 508.24 284.38&#10;  C 523.31 288.56 536.02 297.11 546.29 308.81&#10;  Q 553.05 316.53 557.18 325.41&#10;  Q 562.72 337.32 564.11 351.85&#10;  Q 565.30 364.21 562.97 375.34&#10;  Z"/>
<path fill="#1f79df" d="&#10;  M 462.00 285.01&#10;  Q 469.08 286.41 476.00 288.07&#10;  C 500.06 293.85 520.24 308.49 534.87 328.16&#10;  C 545.81 342.88 554.64 358.99 562.97 375.34&#10;  Q 560.34 390.29 551.28 403.21&#10;  Q 543.69 381.97 534.99 361.40&#10;  C 528.16 345.24 519.68 330.70 506.12 319.21&#10;  Q 492.18 307.40 473.28 301.01&#10;  Q 455.91 295.13 441.20 295.36&#10;  Q 450.73 288.29 462.00 285.01&#10;  Z"/>
<path fill="#06a7da" d="&#10;  M 551.28 403.21&#10;  Q 541.11 418.23 525.24 427.37&#10;  Q 531.50 407.91 525.28 388.39&#10;  Q 528.66 379.91 529.23 373.49&#10;  Q 529.98 365.01 526.46 355.26&#10;  Q 521.10 340.37 508.91 331.49&#10;  Q 501.06 325.77 490.74 323.57&#10;  Q 468.42 318.82 449.43 333.63&#10;  Q 446.04 336.27 440.42 344.00&#10;  Q 434.43 339.26 426.99 337.59&#10;  Q 423.42 336.79 412.63 333.88&#10;  Q 417.03 321.21 425.03 310.52&#10;  Q 431.80 301.48 441.20 295.36&#10;  Q 455.91 295.13 473.28 301.01&#10;  Q 492.18 307.40 506.12 319.21&#10;  C 519.68 330.70 528.16 345.24 534.99 361.40&#10;  Q 543.69 381.97 551.28 403.21&#10;  Z"/>
<path fill="#7d04e8" d="&#10;  M 325.21 301.92&#10;  C 331.24 305.78 334.81 312.94 336.44 319.84&#10;  Q 338.25 327.55 335.60 335.66&#10;  Q 332.52 345.05 323.24 349.73&#10;  Q 322.69 350.00 323.18 350.37&#10;  Q 331.44 356.51 335.09 365.49&#10;  Q 338.39 373.60 336.50 382.31&#10;  Q 333.61 395.70 321.22 403.44&#10;  Q 319.40 404.57 316.02 405.58&#10;  Q 311.94 406.80 304.03 405.70&#10;  Q 287.05 392.69 265.82 383.32&#10;  C 270.38 380.07 275.13 377.25 278.46 372.47&#10;  Q 283.49 365.23 285.39 362.15&#10;  C 287.51 358.69 290.57 355.57 293.02 352.52&#10;  Q 294.98 350.08 293.18 347.74&#10;  C 305.16 332.29 315.60 318.35 325.21 301.92&#10;  Z"/>
<path fill="#3cb8c1" d="&#10;  M 440.42 344.00&#10;  Q 430.63 359.24 433.36 377.58&#10;  C 435.20 389.94 443.54 402.37 453.91 409.41&#10;  Q 465.80 417.48 479.88 417.87&#10;  Q 489.55 418.13 499.30 414.01&#10;  Q 516.88 406.57 525.28 388.39&#10;  Q 531.50 407.91 525.24 427.37&#10;  Q 517.25 431.54 508.79 434.40&#10;  Q 499.86 437.42 491.43 438.00&#10;  Q 459.77 440.21 436.30 420.76&#10;  Q 428.29 414.12 422.67 406.18&#10;  Q 412.53 391.84 409.67 373.63&#10;  Q 406.44 353.08 412.63 333.88&#10;  Q 423.42 336.79 426.99 337.59&#10;  Q 434.43 339.26 440.42 344.00&#10;  Z"/>
<path fill="#552fe6" d="&#10;  M 265.82 383.32&#10;  Q 287.05 392.69 304.03 405.70&#10;  Q 292.33 416.86 278.36 425.35&#10;  Q 263.63 434.31 249.03 443.47&#10;  Q 244.79 446.13 240.54 448.54&#10;  Q 234.36 439.06 228.20 429.70&#10;  Q 223.41 422.42 220.39 412.39&#10;  L 265.82 383.32&#10;  Z"/>
<path fill="#00f5da" d="&#10;  M 117.04 411.55&#10;  Q 116.15 435.95 128.89 457.58&#10;  Q 136.44 470.39 145.33 488.12&#10;  Q 136.24 488.60 128.90 484.47&#10;  Q 121.79 480.47 117.72 472.95&#10;  Q 113.69 465.50 113.42 456.64&#10;  A 1.80 1.80 0.0 0 0 112.00 454.93&#10;  Q 96.03 451.52 80.20 447.55&#10;  Q 76.30 446.56 63.90 446.65&#10;  A 1.51 1.50 24.2 0 0 62.95 447.01&#10;  C 54.51 454.51 43.77 453.84 34.75 447.61&#10;  Q 29.66 444.09 25.67 438.69&#10;  C 20.80 432.09 21.17 421.12 23.15 413.38&#10;  Q 25.00 406.13 30.96 401.42&#10;  Q 45.44 389.96 62.82 397.20&#10;  C 64.31 397.82 66.54 399.73 67.34 401.45&#10;  Q 67.86 402.59 69.05 404.18&#10;  Q 70.12 405.61 72.50 405.60&#10;  Q 89.96 405.50 108.81 409.15&#10;  Q 111.88 409.75 117.04 411.55&#10;  Z"/>
<path fill="#06a7da" d="&#10;  M 143.30 426.83&#10;  Q 142.50 428.02 141.51 427.90&#10;  Q 141.38 427.88 141.25 427.87&#10;  Q 141.26 427.87 141.28 427.88&#10;  Q 141.32 427.90 141.34 427.90&#10;  Q 144.87 427.95 145.83 427.66&#10;  Q 150.73 426.20 155.71 425.09&#10;  Q 156.20 424.98 156.38 425.45&#10;  L 170.48 462.40&#10;  Q 169.35 464.71 168.65 467.27&#10;  Q 167.61 471.07 167.10 472.21&#10;  Q 161.01 485.75 145.33 488.12&#10;  Q 136.44 470.39 128.89 457.58&#10;  Q 116.15 435.95 117.04 411.55&#10;  Q 129.00 415.02 137.35 421.65&#10;  Q 138.60 422.65 143.30 426.83&#10;  Z"/>
<path fill="#1f79df" d="&#10;  M 220.39 412.39&#10;  Q 223.41 422.42 228.20 429.70&#10;  Q 234.36 439.06 240.54 448.54&#10;  Q 239.09 449.38 236.34 451.33&#10;  C 234.78 452.43 234.04 453.49 234.02 455.46&#10;  Q 233.99 458.34 233.78 462.03&#10;  Q 233.34 469.64 228.53 475.79&#10;  Q 224.37 481.12 215.78 485.51&#10;  Q 215.99 483.79 215.72 482.90&#10;  Q 215.58 482.41 215.10 482.56&#10;  Q 205.57 485.37 197.76 481.19&#10;  Q 191.44 477.80 188.12 474.18&#10;  Q 186.03 471.89 181.36 465.26&#10;  Q 180.99 464.73 180.35 464.85&#10;  L 178.66 465.15&#10;  Q 179.43 463.95 178.51 462.99&#10;  Q 177.95 462.41 176.78 462.37&#10;  Q 173.70 462.27 170.48 462.40&#10;  L 156.38 425.45&#10;  Q 156.20 424.98 155.71 425.09&#10;  Q 150.73 426.20 145.83 427.66&#10;  Q 144.87 427.95 141.34 427.90&#10;  Q 141.32 427.90 141.28 427.88&#10;  Q 141.26 427.87 141.25 427.87&#10;  Q 141.38 427.88 141.51 427.90&#10;  Q 142.50 428.02 143.30 426.83&#10;  Q 147.19 424.95 151.01 422.74&#10;  Q 156.30 419.68 158.77 418.71&#10;  C 165.33 416.13 170.11 415.23 177.07 416.36&#10;  Q 190.94 418.60 202.10 427.56&#10;  A 1.61 1.60 -54.1 0 0 204.45 427.18&#10;  Q 206.06 424.71 206.84 423.21&#10;  Q 207.56 421.83 209.93 420.05&#10;  Q 215.06 416.18 220.39 412.39&#10;  Z"/>
<path fill="#06a7da" d="&#10;  M 215.78 485.51&#10;  Q 188.56 492.39 178.66 465.15&#10;  L 180.35 464.85&#10;  Q 180.99 464.73 181.36 465.26&#10;  Q 186.03 471.89 188.12 474.18&#10;  Q 191.44 477.80 197.76 481.19&#10;  Q 205.57 485.37 215.10 482.56&#10;  Q 215.58 482.41 215.72 482.90&#10;  Q 215.99 483.79 215.78 485.51&#10;  Z"/>
</svg>